<svg xmlns="http://www.w3.org/2000/svg" viewBox="0 0 252 252"><defs><style>.cls-1{fill:none;stroke:#fff;stroke-miterlimit:10;stroke-width:3px;}</style></defs><g id="Layer_2" data-name="Layer 2"><g id="Layer_1-2" data-name="Layer 1"><path class="cls-1" d="M119,250.5H1.5V1.5H250.27V106.11c-3.63-18.82-10.43-36.34-22-51.58C216.48,39.12,204,24.22,184.32,18.26A2.74,2.74,0,0,1,183,17c-2-3.57-3.66-1.48-5.34.24-.76.78-1.42,1.66-2.49,2.93-.11-1.62-.17-2.56-.28-4.32-2.42,3.31-4.32,5.9-5.53,7.57-2.84-.45-5-.87-7.27-1-.23,0-.58,1.56-.88,2.39l4.07.3c-2,3.61-3.26,4-8.91,4.7-1.39.17-3.72,2.55-3.56,3.6A25.88,25.88,0,0,0,156,43.06c4.63,7.44,10.1,14.59,11.19,23.48,1.07,8.74,8.17,15.8,5.25,25.88-2.43,8.42-2.3,17.62-2.87,26.51s.47,18.06-5.2,26.15c-2.2,3.14-3,7.28-4.83,12.1,1.7,2.19,4.39,5.52,6.94,9,3.95,5.36,7.88,10.56,15.22,11.65a9.78,9.78,0,0,1,5,3.07,16.78,16.78,0,0,0,9.63,5.26c5.07,1,10,3.21,14.7,5.47a39.26,39.26,0,0,1,8.31,6c4.53,3.92,6.59,3.87,9.78-.83,1.77-2.61,3.52-5.23,5.15-7.92,7.94-13.12,12.81-27.41,16.29-42.33v104H136a23.53,23.53,0,0,0,2.85-4.07c1.49-3.47,2.63-7.08,4-10.6,2.31-5.93,4.69-11.83,6.94-17.52-5.15-2.53-9.57-2.69-13.81.82-.47.39-2.91-.54-3.3-1.38a11.88,11.88,0,0,1-.62-5.11c.11-4.08.42-8.15.69-13-4.48,1-7.66,1.85-10.88,2.49-4.15.83-6.42-1.45-5.57-5.57a27.43,27.43,0,0,1,1.26-3.6c-4.56-2.38-8.66-5.59-13.26-6.65-5-1.13-10.4-.25-16.77-.25,1.13,7.59,1.76,14.66,3.33,21.5,1.72,7.45,3.76,14.62,1.59,22.44-.87,3.15.25,6.85.41,10.3.21,4.6,2.77,6.64,7.17,7.23C106.35,248.36,112.68,249.49,119,250.5ZM44.18,105.18l1.73-2.71-.74-1c-3.09,2.37-6.28,4.64-9.16,7.25-.37.33.86,2.43,1.36,3.76,2.69-2.9,4.84-5.21,7-7.53.11,4.54-3.13,8.11-1.79,13.56,1.91,7.8,6.29,12.41,12.81,14.89a15.92,15.92,0,0,0,17.72-3.78c.16-.16.56-.09,1.19-.18-.15.68-.25,1.25-.41,1.8s-.39,1.09-.66,1.82c6.67-1.17,6.67-1.17,7.33.41-8,6.59-17,3.1-26.17,2.23a13.37,13.37,0,0,0,.57,2.94c5.9,11.66,11.36,23.58,18,34.78,2.52,4.21,7.72,6.94,12,9.93,1.16.82,4.2.87,5,0A55.83,55.83,0,0,0,98,172.34c1-2,.18-4.93.18-7.8-3.08-.23-6.28-.09-9.27-.84-1.54-.38-3-2.16-3.81-3.69-.24-.46,1.87-2.19,3-3.28a18.13,18.13,0,0,1,2.14-1.48c-5.59-4.51-10.89-1.92-16-.34-.16-.74-.39-1.21-.27-1.35,3.33-3.83,6.36-7.71,12.29-8.13,2.62-.18,6.55-2.33,7.27-4.47,1.35-4-3.21-3.24-5.48-4.44-2.76-1.46-6.11-2.58-5.32-7.18C84.06,121.2,85,113,86.1,104.8l-2.64-.87c-5.33,3.34-2.73,10.91-6.46,16.13-.66-3.38-1.15-5.87-1.67-8.55L60.27,125.18l2.27-5.89-9.33-6.12.4-.61,13.22,2,.12-.93-2.82-.9,3-1.85c-2.7-6.53-6,1.82-9.61-.94l9.07-6.26-4.32-2.47C55.66,98.39,49.94,101.86,44.18,105.18Zm53.5-25.74c.56-5,.39-10.16,1.85-14.86,2.12-6.86-.27-10.7-7.41-9.89-5.76.66-11.31,1.15-17.11-.93S57.9,57.38,54.79,63l5.08.66,1.4,1.57c-9.38-2.29-9.5,4-10.32,8.87-1,5.85-1.13,11.86-1.46,17.82-.13,2.51.21,5.05.34,7.68l12.09-3.2-4.56-2.53c7.23-4.44,14.44-2.65,17.45,4l8.67-3.27C82.66,88.22,92.8,77.53,97.68,79.44ZM24.37,167.91c-.44,1.48-1.23,2.65-.94,3.4,1.68,4.3,1.37,7.75-2.52,10.95-1.12.92-1.48,4.29-.7,5.72A119.3,119.3,0,0,0,29,201.2c.73,1,2.84,2.14,3.57,1.76,4.75-2.46,9.29-5.31,13.9-8,1.06-.89,3-.91,3.79-1.89,1.72-2.17,2.83-4.81,4.81-8.38L50,179.92l-2.68,3.16c-6.54-2.49,2.51-8.27-2.69-11.55q-3,7.47-5.87,14.7l5.51,4.16-12.79,1.66-.93-13.44c3.1,4.55,5.42,3.6,8.18.45-1.65-1-3.22-2.81-4.51-2.62-5.63.81-7.48-2.38-8.47-6.93C25.63,169.12,25.16,168.82,24.37,167.91Zm98.72-57.41L111,117.68l7.62,3.95c.77-1.87,1.55-3.74,2.31-5.61C121.51,114.59,122.06,113.14,123.09,110.5ZM41.84,43.89c5.27,0,6.47-8,11.61-2.73l4.07-4.44-5.11-3.21Zm101.38,81.05,1.38.37c1.35-2.57,2.86-5.08,4-7.76.26-.65-.83-1.85-1.3-2.8-.81.58-2.12,1-2.33,1.76C144.16,119.27,143.76,122.12,143.22,124.94Zm-13.09-21.22-.33-2.18-14,2.49.2,1.32Z"/></g></g></svg>