<svg xmlns="http://www.w3.org/2000/svg" viewBox="0 0 408.89 374.65"><defs><style>.cls-1{fill:#fff;}</style></defs><g id="Layer_2" data-name="Layer 2"><g id="Layer_1-2" data-name="Layer 1"><path class="cls-1" d="M0,153.76c2-6.42,3.18-13.26,6.18-19.17,9.79-19.26,31.45-26.68,52.18-17.84,24.19,10.31,37.35,29.72,43,54.72a58.84,58.84,0,0,1-.76,29.58C93.19,227,68.57,239,43.82,228.23,20.47,218.08,7.67,199.15,1.65,175.05,1,172.5.55,169.91,0,167.33Zm16,8.71c1.48,20.13,10.64,38.8,31.51,49.88,17.58,9.32,33.37,1.7,38.08-17.66,3-12.28.48-24-5-35.13C74.22,146.5,65,136.22,51,131c-11.78-4.34-22.48-1.29-29.24,8.53C17.61,145.55,16.27,152.45,16,162.47Z"/><path class="cls-1" d="M208.07,148c23.5,1.18,44.07,12.95,57.14,37.16,7.69,14.25,14.9,28.85,23.8,42.32a154.47,154.47,0,0,0,23.4,27.06c27.5,25.78,28.29,72.54,1,98.42-19.7,18.66-43.09,25.71-69.46,19.41-27-6.46-53.49-5.9-80.5.23-36.3,8.24-75.57-13.49-85.09-50.24C72,297.78,77.1,275.26,95.07,257.14c18.7-18.86,33.82-39.9,44.81-64,5.41-11.87,12.14-22.68,22.75-30.75C174.67,153.24,189.32,148.06,208.07,148ZM148.7,358.35c2.26-.11,4.53-.1,6.77-.37a52.11,52.11,0,0,0,6.67-1.21,167.63,167.63,0,0,1,84.41,0c16.12,4.12,31.35,1.43,45.57-7.17,29.86-18.06,34.12-60.11,9-83.73-9-8.51-17-18.26-24.66-28.1-11-14.15-18.16-30.55-26.13-46.48-12.45-24.93-46.13-34.76-70.49-21.18-11.15,6.22-18.91,15.24-24.08,26.75-12.09,27-28.29,51-49.62,71.68C94.33,280,90,295,92.39,311.38,96.38,339,119.8,358.27,148.7,358.35Z"/><path class="cls-1" d="M221.06,69c.54-19.59,6.33-38.83,21.08-54.57C262-6.76,289.08-4,304.54,20.5c18.44,29.26,12.27,75.88-13.13,99.33-19.43,17.94-44.72,14.72-59-7.53C224.33,99.59,221.21,85.49,221.06,69Zm78.15-8.46c.31-10.87-3.43-24.35-9.13-32.92-7.78-11.7-19.49-15-29.64-7.65a47.52,47.52,0,0,0-11.39,11.51c-12.17,18-14.84,37.85-9.15,58.64a50.09,50.09,0,0,0,7.43,15.29c9.06,12.83,22.87,13.44,34,2C293.9,94.32,298.69,78.24,299.21,60.54Z"/><path class="cls-1" d="M93.77,62.81c.31-18.45,3.72-33.8,13.86-47,14.2-18.56,36.77-21,54.55-5.85,13.63,11.65,20.91,26.95,24.1,44.27,3.39,18.4,1.85,36.33-6.95,53.13-5.17,9.88-12.3,18.09-23.18,22-12.49,4.45-23.93,1.37-34.18-6.23-16-11.85-23.58-28.65-26.84-47.73C94.31,70.5,94.06,65.58,93.77,62.81Zm16.41-2.49c0,2.39-.2,4.8,0,7.17,1.46,15.11,6.54,28.7,17.4,39.67,7.88,8,17.36,10.21,25.27,6.12,5.78-3,9.63-8,12.43-13.62,7.79-15.77,8.29-32.24,3.74-48.91-3.29-12-9.12-22.63-19.4-30.3-8.52-6.36-18.56-5.84-26.05,1.51C112.85,32.52,110.45,46.1,110.18,60.32Z"/><path class="cls-1" d="M408.89,163.75c-2.47,27-14.77,50.93-42.84,64-27.57,12.82-55.24-3.15-59.38-33.28-4.06-29.56,12.21-61.46,38.39-75.27,17.26-9.1,36.21-7.66,48.77,3.89C404.86,133.2,408.56,146.34,408.89,163.75Zm-15.95-4.32c-.24-2-.4-4.49-.88-7-3.82-19.75-18.21-27.79-36.85-20.3-11.76,4.72-19.78,13.77-25.6,24.65-7,13-10.05,26.76-5.53,41.44,3.71,12.07,14.43,19.83,25.91,17.42,6.2-1.3,12.73-3.59,17.78-7.27C384,196.61,391.89,180,392.94,159.43Z"/><path class="cls-1" d="M287.64,278.11c-.15,4.63-1.8,7-4.89,8.35a7.45,7.45,0,0,1-8.76-1.89,147.29,147.29,0,0,1-10.75-11.75c-6.15-7.81-12-15.86-17.89-23.88-2.11-2.88-2.65-6.1-.68-9.31,1.77-2.87,4.58-4.38,7.78-3.56a11.82,11.82,0,0,1,5.8,3.69c9.17,11.16,18.15,22.47,27.08,33.83A20.71,20.71,0,0,1,287.64,278.11Z"/><path class="cls-1" d="M236.24,223.35a7.94,7.94,0,0,1-7.83-7.91,7.93,7.93,0,0,1,15.86.2A8,8,0,0,1,236.24,223.35Z"/></g></g></svg>