<svg xmlns="http://www.w3.org/2000/svg" viewBox="0 0 456.99 408.89"><defs><style>.cls-1{fill:none;stroke:#fefefe;stroke-miterlimit:10;stroke-width:10px;}</style></defs><g id="Layer_2" data-name="Layer 2"><g id="Layer_1-2" data-name="Layer 1"><path class="cls-1" d="M196.68,295.72c-16.34-2.22-32.21-4.37-48.08-6.55Q102.81,282.85,57,276.5c-14.34-2-28.69-3.85-43-5.86-6.59-.92-9-3.65-9-10.24Q5,173.69,5,87c0-7.41,2.91-10.19,10.69-10.2,19.63-.05,39.26,0,58.9,0H438.78c2,0,4.05.08,6.05.28,4.2.42,6.27,3.12,7,7a25.83,25.83,0,0,1,.15,4.66q0,84.85,0,169.7c0,9.35-1.94,11.27-11.17,12.52-32.7,4.41-65.37,9-98.06,13.49-25.9,3.58-51.81,7.09-77.69,10.82-3.89.56-5.09-.24-4.79-4.3.58-7.7.12-15.27-5.25-21.64-4.45-5.26-10-8.45-16.87-8.71-6.38-.23-12.78-.3-19.16,0a23.44,23.44,0,0,0-22.28,22.72C196.54,287.31,196.68,291.34,196.68,295.72Z"/><path class="cls-1" d="M228.54,403.89H33.13c-10.11,0-12.19-2.12-12.19-12.39,0-33.19,0-66.38-.07-99.57,0-3.42.41-4.33,4.25-3.78,37.29,5.32,74.61,10.36,111.92,15.48,18.66,2.57,37.31,5.17,56,7.65,2.85.38,3.81,1.48,3.68,4.42-.26,5.6-.18,11.22,0,16.83.38,13.21,10.31,23.1,23.58,23.44,5.91.15,11.85.2,17.76-.08a23.55,23.55,0,0,0,22.21-22.33c.26-5.91.24-11.85.06-17.76-.09-2.78.55-4.12,3.56-4.52,21.14-2.78,42.26-5.72,63.39-8.62l98.05-13.5,5.09-.67c5.65-.72,5.65-.72,5.65,5.21q0,49.32,0,98.64c0,9.17-2.38,11.55-11.62,11.55Z"/><path class="cls-1" d="M228.47,5q34.59,0,69.18,0c17,0,26.48,9.53,26.54,26.63,0,8.57-.08,17.14.06,25.71,0,2.56-.62,3.4-3.33,3.46-12.7.26-12.7.36-12.7-12.36,0-6.08.09-12.16,0-18.23-.12-6.34-2.87-9.23-9.12-9.23q-70.59-.08-141.16,0c-6.26,0-9.06,2.88-9.14,9.21-.11,9-.12,18.07,0,27.1,0,2.61-.67,3.44-3.37,3.51-12.65.34-12.67.43-12.64-12.32,0-7.16-.16-14.34.25-21.48.69-12,10.06-21.59,22.06-21.76,24.45-.36,48.92-.11,73.37-.11Z"/><path class="cls-1" d="M228,60.75c-19.63,0-39.27-.12-58.9.1-3.82,0-4.67-1.15-4.47-4.67a124.28,124.28,0,0,0,0-15c-.21-3.41.67-4.4,4.26-4.38,27.58.17,55.16.09,82.74.09,12.16,0,24.31.17,36.46-.1,3.64-.08,4.45,1,4.25,4.41a124.28,124.28,0,0,0,0,15c.21,3.54-.7,4.69-4.5,4.65C267.9,60.63,248,60.75,228,60.75Z"/><path class="cls-1" d="M244.41,308.26c0,7.33,0,14.65,0,22,0,7-2.88,9.78-10,9.84-4.36,0-8.73.1-13.09,0-5.62-.16-8.66-3.13-8.69-8.78q-.15-23.14,0-46.29c0-5.42,3.05-8.43,8.36-8.59,5-.15,10-.14,15,0,5.36.14,8.36,3.1,8.45,8.49C244.51,292.68,244.41,300.47,244.41,308.26Z"/></g></g></svg>